<svg 
 xmlns="http://www.w3.org/2000/svg"
 xmlns:xlink="http://www.w3.org/1999/xlink"
 width="192px" height="30px">
<path fill-rule="evenodd"  fill="rgb(0, 0, 0)"
 d="M188.316,9.540 L188.316,20.160 L190.176,21.765 L191.159,20.963 L191.545,21.473 L188.387,24.320 C186.772,22.970 185.298,22.021 183.965,21.546 C184.596,20.853 184.912,19.977 184.912,18.919 L184.912,9.504 L183.684,9.504 L183.719,8.993 L188.281,3.044 L188.316,7.679 L191.896,7.679 L191.896,9.540 L188.316,9.540 ZM179.341,12.971 L182.640,15.087 L182.640,21.802 C181.868,22.057 181.096,22.422 180.359,22.897 C179.973,23.152 179.271,23.590 178.288,24.283 C177.095,23.663 175.902,23.335 174.744,23.335 C173.586,23.335 172.428,23.627 171.200,24.174 L170.743,23.846 L174.919,17.642 L171.550,15.708 L171.550,10.088 C173.130,9.358 174.569,8.336 175.867,7.059 C177.797,8.044 179.271,8.555 180.359,8.555 L181.271,8.445 C181.938,8.445 182.605,7.862 182.605,7.168 C182.605,6.913 182.359,6.475 181.833,5.781 L181.657,5.453 C181.657,5.052 181.938,4.869 182.500,4.869 C183.202,4.869 183.553,5.307 183.553,6.219 C183.553,6.767 183.202,7.533 182.535,8.482 L179.341,12.971 ZM173.621,20.744 C174.253,20.598 175.025,20.525 175.902,20.525 C177.130,20.525 178.394,20.853 179.692,21.510 L179.727,16.656 L177.516,15.489 L173.621,20.744 ZM178.183,10.708 C177.130,10.708 175.972,10.453 174.674,9.905 L174.639,14.102 L176.744,15.233 L180.148,10.562 C179.587,10.672 178.920,10.708 178.183,10.708 ZM158.291,21.546 C158.922,20.999 159.238,20.087 159.238,18.736 L159.238,10.088 C161.133,9.540 162.783,8.555 164.221,7.168 C166.432,8.664 168.292,9.504 169.801,9.723 L169.801,21.619 C167.696,22.276 165.976,23.225 164.607,24.429 C162.747,23.006 160.642,22.057 158.291,21.546 ZM166.503,21.546 L166.503,11.511 L162.467,9.905 L162.467,19.977 C163.239,20.306 164.081,20.671 164.958,20.999 C165.590,21.254 166.116,21.437 166.503,21.546 ZM147.394,23.079 L147.359,29.173 L144.341,29.064 L141.358,29.173 L141.323,22.678 C139.533,22.678 137.498,23.152 135.182,24.101 L134.971,23.809 C136.340,21.729 138.410,20.196 141.253,19.284 C141.007,17.496 140.376,15.963 139.393,14.722 C138.551,13.664 137.287,12.606 135.603,11.620 L141.323,7.497 L141.358,5.672 C141.393,4.030 140.937,3.008 139.990,2.534 C139.533,2.351 139.077,2.242 138.551,2.242 C137.849,2.242 137.077,2.388 136.270,2.643 L136.270,2.169 C137.708,0.964 139.182,0.344 140.727,0.344 C143.148,0.344 144.622,2.023 144.868,4.614 L146.587,3.555 L146.587,0.271 L147.394,0.271 L147.394,2.971 L151.149,0.307 C153.430,1.877 155.045,3.336 155.992,4.687 C156.799,5.854 157.221,7.643 157.221,10.051 L157.221,20.233 L152.132,24.575 C150.518,23.882 148.938,23.371 147.394,23.079 ZM141.288,8.336 L138.551,10.161 L141.288,12.496 L141.288,8.336 ZM146.587,4.395 L145.043,5.344 L145.043,28.188 L146.587,28.188 L146.587,4.395 ZM151.781,5.234 C150.728,4.030 149.430,3.446 147.921,3.446 L147.359,3.884 L147.359,9.321 C148.096,10.234 149.114,10.672 150.342,10.672 C151.570,10.672 152.588,10.234 153.395,9.394 C153.395,7.789 152.869,6.402 151.781,5.234 ZM147.394,10.416 L147.394,15.014 C148.272,14.503 149.219,14.248 150.167,14.248 C151.184,14.248 152.272,14.503 153.360,15.014 L153.360,10.416 C152.343,10.963 151.290,11.255 150.272,11.255 C149.254,11.255 148.272,10.963 147.394,10.416 ZM153.395,15.963 C152.413,15.197 151.360,14.832 150.237,14.832 C149.219,14.832 148.272,15.124 147.359,15.744 L147.359,18.992 C149.009,19.393 150.026,19.649 150.342,19.758 C151.325,20.050 152.343,20.415 153.360,20.890 L153.395,15.963 ZM126.376,9.723 L125.007,10.817 L125.007,20.269 L126.902,21.802 L127.920,21.036 L128.341,21.473 L125.148,24.320 C123.814,23.116 122.305,22.203 120.656,21.546 C121.287,20.999 121.603,20.123 121.603,18.919 L121.603,11.584 C121.603,10.963 121.322,10.380 120.761,9.905 L120.164,10.307 L119.778,9.905 L122.761,7.168 C123.498,7.570 123.990,7.935 124.270,8.263 C124.621,8.664 124.867,9.248 124.972,10.015 L128.517,7.205 L130.798,9.796 L128.482,11.876 L126.376,9.723 ZM113.670,20.452 L116.618,21.802 L118.934,20.269 L119.320,20.707 C118.724,21.109 118.092,21.546 117.390,22.057 L114.337,24.283 C112.793,23.408 111.179,22.787 109.494,22.459 C110.161,21.729 110.477,20.853 110.477,19.795 L110.477,10.051 C112.091,9.285 113.670,8.299 115.214,7.168 L119.742,11.876 C117.180,13.737 115.179,15.306 113.670,16.656 L113.670,20.452 ZM116.969,13.080 L113.635,9.540 L113.635,15.817 L116.969,13.080 ZM104.544,24.210 C103.878,23.918 102.895,23.444 101.597,22.787 L101.491,24.101 C101.421,24.867 101.526,25.707 101.807,26.582 C101.983,27.203 102.439,28.042 103.141,29.028 C102.158,28.882 101.351,28.553 100.754,28.006 C100.579,27.896 100.193,27.458 99.561,26.728 C99.035,27.203 98.614,27.531 98.368,27.714 C97.912,28.006 97.456,28.188 96.999,28.261 C97.947,27.057 98.368,25.780 98.333,24.356 L98.263,21.948 C97.982,21.838 97.631,21.802 97.245,21.802 L96.473,21.802 L96.473,20.744 C96.859,20.561 97.491,20.342 98.333,20.087 L98.333,11.766 C98.333,10.672 98.052,9.942 97.526,9.613 L96.684,10.161 L96.297,9.869 L99.245,7.132 C100.649,7.898 101.456,9.066 101.667,10.708 L105.281,7.168 C107.633,8.008 108.791,9.869 108.791,12.752 L108.791,20.853 C108.124,21.254 107.387,21.765 106.580,22.386 C106.264,22.641 105.562,23.262 104.544,24.210 ZM105.667,11.912 C105.667,11.146 104.544,10.161 103.702,9.869 L101.597,11.803 L101.597,20.160 C103.035,20.561 104.369,20.999 105.667,21.473 L105.667,11.912 ZM90.463,20.379 L85.691,24.356 L85.515,24.356 C83.866,22.751 83.024,21.182 83.024,19.685 C83.024,17.423 84.182,15.233 86.498,13.080 L84.813,8.518 L85.270,8.555 C86.568,8.664 87.796,8.190 88.884,7.132 L93.868,8.847 L94.850,8.044 L94.920,8.190 C94.359,9.102 93.973,10.015 93.727,11.000 L93.727,20.561 C93.903,21.182 94.254,21.546 94.710,21.692 L95.341,21.364 L95.728,21.692 L92.709,24.320 C91.200,23.481 90.463,22.167 90.463,20.379 ZM90.463,10.817 L85.375,8.847 L86.849,13.007 L90.463,14.832 L90.463,10.817 ZM90.499,15.489 L86.849,13.591 C86.182,14.832 85.831,16.036 85.831,17.167 C85.831,18.809 86.498,20.342 87.867,21.765 L90.499,19.430 L90.499,15.489 ZM78.018,24.210 C77.351,23.918 76.368,23.444 75.070,22.787 L74.965,24.101 C74.894,24.867 75.000,25.707 75.280,26.582 C75.456,27.203 75.912,28.042 76.614,29.028 C75.631,28.882 74.824,28.553 74.228,28.006 C74.052,27.896 73.666,27.458 73.034,26.728 C72.508,27.203 72.087,27.531 71.841,27.714 C71.385,28.006 70.929,28.188 70.473,28.261 C71.420,27.057 71.841,25.780 71.806,24.356 L71.736,21.948 C71.455,21.838 71.104,21.802 70.718,21.802 L69.946,21.802 L69.946,20.744 C70.332,20.561 70.964,20.342 71.806,20.087 L71.806,11.766 C71.806,10.672 71.525,9.942 70.999,9.613 L70.157,10.161 L69.771,9.869 L72.719,7.132 C74.122,7.898 74.930,9.066 75.140,10.708 L78.755,7.168 C81.106,8.008 82.264,9.869 82.264,12.752 L82.264,20.853 C81.597,21.254 80.860,21.765 80.053,22.386 C79.737,22.641 79.035,23.262 78.018,24.210 ZM79.141,11.912 C79.141,11.146 78.018,10.161 77.176,9.869 L75.070,11.803 L75.070,20.160 C76.509,20.561 77.842,20.999 79.141,21.473 L79.141,11.912 ZM65.389,12.971 L68.688,15.087 L68.688,21.802 C67.916,22.057 67.144,22.422 66.407,22.897 C66.021,23.152 65.319,23.590 64.337,24.283 C63.143,23.663 61.950,23.335 60.792,23.335 C59.634,23.335 58.476,23.627 57.248,24.174 L56.791,23.846 L60.968,17.642 L57.599,15.708 L57.599,10.088 C59.178,9.358 60.617,8.336 61.915,7.059 C63.845,8.044 65.319,8.555 66.407,8.555 L67.320,8.445 C67.986,8.445 68.653,7.862 68.653,7.168 C68.653,6.913 68.407,6.475 67.881,5.781 L67.706,5.453 C67.706,5.052 67.986,4.869 68.548,4.869 C69.250,4.869 69.601,5.307 69.601,6.219 C69.601,6.767 69.250,7.533 68.583,8.482 L65.389,12.971 ZM59.669,20.744 C60.301,20.598 61.073,20.525 61.950,20.525 C63.179,20.525 64.442,20.853 65.740,21.510 L65.775,16.656 L63.565,15.489 L59.669,20.744 ZM64.231,10.708 C63.179,10.708 62.020,10.453 60.722,9.905 L60.687,14.102 L62.792,15.233 L66.197,10.562 C65.635,10.672 64.968,10.708 64.231,10.708 ZM47.045,23.043 C45.957,23.043 44.905,23.517 43.817,24.429 C42.202,23.189 40.167,22.240 37.675,21.546 C38.342,20.926 38.658,19.977 38.658,18.736 L38.658,10.234 C37.640,8.956 37.114,7.825 37.114,6.840 C37.114,5.271 38.272,3.847 40.588,2.570 L40.764,2.862 C39.816,3.738 39.360,4.541 39.360,5.271 C39.360,5.526 39.781,6.292 40.623,7.533 C41.501,8.737 41.922,9.869 41.922,10.890 L46.659,7.205 C48.063,8.336 48.835,9.577 48.940,11.000 L53.713,7.168 C55.292,8.591 56.099,9.905 56.099,11.109 L56.099,21.619 C54.310,22.130 52.660,23.079 51.151,24.429 C49.361,23.517 47.993,23.043 47.045,23.043 ZM45.712,11.876 C45.712,11.584 45.642,11.292 45.466,11.036 C45.431,10.927 45.080,10.526 44.448,9.796 L41.851,11.949 L41.851,20.196 C42.834,20.671 44.133,21.182 45.712,21.729 L45.712,11.876 ZM53.117,21.729 L53.117,11.876 C53.117,11.474 52.906,11.000 52.450,10.526 C52.309,10.343 52.099,10.124 51.783,9.796 L48.975,11.949 L48.975,20.452 C49.748,20.744 50.590,21.036 51.537,21.291 C51.853,21.364 52.380,21.510 53.117,21.729 ZM31.027,20.452 L33.975,21.802 L36.291,20.269 L36.677,20.707 C36.080,21.109 35.449,21.546 34.747,22.057 L31.694,24.283 C30.150,23.408 28.535,22.787 26.851,22.459 C27.518,21.729 27.833,20.853 27.833,19.795 L27.833,10.051 C29.448,9.285 31.027,8.299 32.571,7.168 L37.098,11.876 C34.536,13.737 32.536,15.306 31.027,16.656 L31.027,20.452 ZM34.326,13.080 L30.992,9.540 L30.992,15.817 L34.326,13.080 ZM20.955,24.137 C19.166,24.137 17.727,24.977 16.674,26.619 L16.463,26.400 C16.779,24.831 17.376,22.933 18.218,20.780 C18.990,18.992 19.762,17.167 20.534,15.343 C19.587,14.503 18.604,14.102 17.586,14.102 C16.709,14.102 15.586,14.503 14.288,15.343 L14.288,19.320 C14.288,21.291 13.691,23.006 12.533,24.429 C11.305,25.962 9.761,26.728 7.901,26.728 L7.479,26.728 C6.988,26.728 5.970,26.473 4.391,25.999 C3.514,25.743 2.812,25.597 2.250,25.597 C1.619,25.597 0.882,25.780 0.075,26.181 L0.040,26.072 C0.601,25.269 1.127,24.648 1.619,24.247 C2.356,23.627 3.093,23.298 3.830,23.298 L4.391,23.298 C4.567,23.298 5.163,23.371 6.146,23.481 C6.532,23.517 6.918,23.554 7.234,23.554 L7.830,23.481 C9.129,23.481 10.111,22.678 10.111,21.364 C10.111,20.306 9.620,19.466 8.602,18.846 C7.725,18.335 6.778,18.080 5.690,18.080 L4.847,18.080 C5.479,17.240 6.286,16.802 7.304,16.802 C7.901,16.802 8.462,16.875 8.918,16.985 C8.216,14.576 6.883,13.445 4.883,13.627 L4.075,13.700 C4.602,12.898 5.304,12.496 6.251,12.496 C7.058,12.496 7.936,12.715 8.883,13.190 C8.322,10.489 6.707,9.139 4.075,9.139 C4.742,8.482 5.549,8.153 6.427,8.153 C6.953,8.153 7.760,8.336 8.883,8.664 L8.883,5.672 L17.446,0.271 C22.535,1.950 25.096,4.796 25.096,8.810 C25.096,12.131 23.272,16.182 19.587,20.926 C20.499,20.598 21.412,20.452 22.359,20.452 C22.991,20.452 24.009,20.561 25.412,20.817 L26.009,19.977 L26.606,20.379 L24.254,24.612 C22.991,24.283 21.903,24.137 20.955,24.137 ZM13.551,3.993 L12.147,4.723 L12.147,17.824 C12.147,19.247 12.007,20.379 11.726,21.218 C11.340,22.313 10.638,23.152 9.620,23.736 L9.655,23.882 L9.936,23.955 C12.322,23.955 13.516,22.276 13.516,18.919 L13.551,18.627 L13.551,3.993 ZM18.429,5.271 C17.236,4.504 15.867,4.066 14.288,3.920 L14.288,8.737 C15.586,9.759 16.814,10.270 17.937,10.270 C19.095,10.270 20.183,9.723 21.201,8.628 C20.710,7.241 19.797,6.110 18.429,5.271 ZM21.552,10.963 C21.552,10.744 21.482,10.234 21.377,9.467 C20.289,10.416 19.131,10.890 17.937,10.890 C16.779,10.890 15.551,10.489 14.323,9.650 L14.323,14.540 C15.446,13.846 16.569,13.518 17.692,13.518 C18.780,13.518 19.832,13.846 20.850,14.540 C21.306,13.044 21.552,11.839 21.552,10.963 Z"/>
</svg>